<?xml version="1.0" encoding="UTF-8" standalone="no"?>
<!DOCTYPE svg PUBLIC "-//W3C//DTD SVG 1.1//EN" "http://www.w3.org/Graphics/SVG/1.1/DTD/svg11.dtd">
<svg width="100%" height="100%" viewBox="0 0 1920 1080" version="1.1" xmlns="http://www.w3.org/2000/svg" xmlns:xlink="http://www.w3.org/1999/xlink" xml:space="preserve" xmlns:serif="http://www.serif.com/" style="fill-rule:evenodd;clip-rule:evenodd;stroke-linecap:round;stroke-linejoin:round;stroke-miterlimit:1.5;">
    <g>
        <g transform="matrix(6.76391e-17,1.10463,-1.40442,8.59957e-17,2212.22,71.7407)">
            <path d="M488.622,237.537C491.816,254.651 538.429,506.765 521.159,551.761C503.281,598.342 340.411,672.256 340.411,672.256C340.411,672.256 340.333,638.157 342.49,594.305C348.972,589.373 454.02,509.376 458.847,500.819C465.807,488.484 487.128,254.038 488.622,237.537Z" style="fill:url(#_Linear1);stroke:rgb(131,131,131);stroke-width:0.79px;"/>
        </g>
        <g transform="matrix(6.76391e-17,1.10463,-1.40442,8.59957e-17,2212.22,71.7407)">
            <path d="M342.49,594.305C345.997,591.637 380.78,569.851 410.505,546.442C435.73,526.578 456.631,504.747 458.847,500.819C465.807,488.484 487.128,254.038 488.622,237.537C488.564,237.226 488.52,236.993 488.492,236.84L487.506,237.846C477.264,251.145 386.785,369.673 364.177,435.576C350.966,474.09 345.097,541.317 342.49,594.305Z" style="fill:rgb(239,233,176);stroke:rgb(131,131,131);stroke-width:0.79px;"/>
        </g>
        <g transform="matrix(1.05129,0,0,1.05129,-22.2036,10.9032)">
            <path d="M1293.25,416.898C1292.09,416.898 1410.82,553.821 1440.75,568.794C1472.92,584.893 1669.36,587.776 1695.51,585.264C1720.46,582.867 1809.31,571.221 1809.31,571.221C1809.31,571.221 1484.5,548.808 1457.8,540C1439.15,533.847 1331.54,417.95 1332.71,417.95C1331.54,417.95 1292.09,416.898 1293.25,416.898Z" style="fill:rgb(80,80,80);"/>
        </g>
    </g>
    <g transform="matrix(1.05129,0,0,1.05129,-167.783,128.275)">
        <text x="180.363px" y="494.52px" style="font-family:'AvenirNext-Regular', 'Avenir Next', sans-serif;font-size:184.867px;fill:rgb(0,11,128);">LichtCheck</text>
        <g transform="matrix(288,0,0,288,1447.1,494.52)">
        </g>
        <text x="1113.02px" y="494.52px" style="font-family:'AvenirNext-Italic', 'Avenir Next', sans-serif;font-style:italic;font-size:288px;fill:rgb(0,11,128);">24</text>
    </g>
    <defs>
        <linearGradient id="_Linear1" x1="0" y1="0" x2="1" y2="0" gradientUnits="userSpaceOnUse" gradientTransform="matrix(184.574,0,0,434.719,340.411,454.896)"><stop offset="0" style="stop-color:rgb(191,191,191);stop-opacity:1"/><stop offset="1" style="stop-color:rgb(223,223,223);stop-opacity:1"/></linearGradient>
    </defs>
</svg>
