<svg width="100%" height="100%" viewBox="0 0 1920 1080" xmlns="http://www.w3.org/2000/svg" xmlns:xlink="http://www.w3.org/1999/xlink" xmlns:serif="http://www.serif.com/" style="fill-rule:evenodd;clip-rule:evenodd;stroke-linecap:round;stroke-linejoin:round;stroke-miterlimit:1.5"><g><g transform="matrix(6.76391e-17,1.10463,-1.40442,8.59957e-17,2212.22,71.7407)"><path d="M488.622 237.537C491.816 254.651 538.429 506.765 521.159 551.761c-17.878 46.581-180.748 120.495-180.748 120.495S340.333 638.157 342.49 594.305C348.972 589.373 454.02 509.376 458.847 500.819 465.807 488.484 487.128 254.038 488.622 237.537z" style="fill:url(#_Linear1);stroke:#838383;stroke-width:.79px"/></g><g transform="matrix(6.76391e-17,1.10463,-1.40442,8.59957e-17,2212.22,71.7407)"><path d="M342.49 594.305C345.997 591.637 380.78 569.851 410.505 546.442c25.225-19.864 46.126-41.695 48.342-45.623C465.807 488.484 487.128 254.038 488.622 237.537 488.564 237.226 488.52 236.993 488.492 236.84L487.506 237.846c-10.242 13.299-100.721 131.827-123.329 197.73-13.211 38.514-19.08 105.741-21.687 158.729z" style="fill:#efe9b0;stroke:#838383;stroke-width:.79px"/></g><g transform="matrix(1.05129,0,0,1.05129,-22.2036,10.9032)"><path d="M1293.25 416.898C1292.09 416.898 1410.82 553.821 1440.75 568.794 1472.92 584.893 1669.36 587.776 1695.51 585.264 1720.46 582.867 1809.31 571.221 1809.31 571.221S1484.5 548.808 1457.8 540C1439.15 533.847 1331.54 417.95 1332.71 417.95 1331.54 417.95 1292.09 416.898 1293.25 416.898z" style="fill:#505050"/></g></g><g transform="matrix(1.05129,0,0,1.05129,-167.783,128.275)"><text x="180.363" y="494.52" style="font-family:avenirnext-regular,avenir next,sans-serif;font-size:184.867px;fill:#000b80">LichtCheck</text><g transform="matrix(288,0,0,288,1447.1,494.52)"/><text x="1113.02" y="494.52" style="font-family:avenirnext-italic,avenir next,sans-serif;font-style:italic;font-size:288px;fill:#000b80">24</text></g><defs><linearGradient id="_Linear1" x1="0" y1="0" x2="1" y2="0" gradientUnits="userSpaceOnUse" gradientTransform="matrix(184.574,0,0,434.719,340.411,454.896)"><stop offset="0" style="stop-color:#bfbfbf;stop-opacity:1"/><stop offset="1" style="stop-color:#dfdfdf;stop-opacity:1"/></linearGradient></defs></svg>